C:\Users\r0593348\3dpredictsim\Results\Batchsim_tmt_linear\Pog_s1_tmt_aCst_d05_k250_ig24_pas_GRF.mot
nRows=27
nColumns=19

name C:\Users\r0593348\3dpredictsim\Results\Batchsim_tmt_linear\Pog_s1_tmt_aCst_d05_k250_ig24_pas_GRF.mot
datacolumns 19
datarows 27
range 0.5602916098 0.8516432469
endheader
time 	ground_force_vx	ground_force_vy	ground_force_vz	ground_force_px	ground_force_py	ground_force_pz	1_ground_force_vx	1_ground_force_vy	1_ground_force_vz	1_ground_force_px	1_ground_force_py	1_ground_force_pz	ground_torque_x	ground_torque_y	ground_torque_z	1_ground_torque_x	1_ground_torque_y	1_ground_torque_z
        0.5602916098	       88.1892821406	      416.1090629106	        6.1148849547	        0.3712121397	        0.0000000000	        0.0308900035	      -95.3692778774	       94.8385684301	      -51.2785368285	        0.8661130002	        0.0000000000	       -0.0365695523	        0.0000000000	        0.0000000000	        0.0000000000	        0.0000000000	        0.0000000000	        0.0000000000	
        0.5714974420	       67.9373654385	      329.6542896172	       12.8733698685	        0.3768058097	        0.0000000000	        0.0290909540	      -93.0678432935	      204.0467875114	      -80.6234276690	        0.8719057696	        0.0000000000	       -0.0344137416	        0.0000000000	        0.0000000000	        0.0000000000	        0.0000000000	        0.0000000000	        0.0000000000	
        0.5827032742	       37.6571356650	      222.0694484482	        9.3935741020	        0.3881995845	        0.0000000000	        0.0241214121	      -51.3218038541	      384.1515271329	      -17.9078674310	        0.8762147203	        0.0000000000	       -0.0326954519	        0.0000000000	        0.0000000000	        0.0000000000	        0.0000000000	        0.0000000000	        0.0000000000	
        0.5939091064	       17.2458370573	      146.9320485937	        9.2979549168	        0.4050582715	        0.0000000000	        0.0154690053	      -66.5864446199	      597.2391215211	        4.5884816473	        0.8833572653	        0.0000000000	       -0.0342305040	        0.0000000000	        0.0000000000	        0.0000000000	        0.0000000000	        0.0000000000	        0.0000000000	
        0.6051149386	        2.6164292329	      119.0879272656	       11.4725177923	        0.4060208778	        0.0000000000	        0.0148605449	     -100.6143065699	      786.8227093890	       12.4559956183	        0.8911203324	        0.0000000000	       -0.0364543196	        0.0000000000	        0.0000000000	        0.0000000000	        0.0000000000	        0.0000000000	        0.0000000000	
        0.6163207708	       -1.8369957280	       78.5192071308	       10.3611252726	        0.4064874494	        0.0000000000	        0.0148974997	     -119.4930706420	      880.0610053076	       14.5812534124	        0.8961090708	        0.0000000000	       -0.0377687912	        0.0000000000	        0.0000000000	        0.0000000000	        0.0000000000	        0.0000000000	        0.0000000000	
        0.6275266030	       -7.2486576737	       32.5340679413	        6.1269798214	        0.4063984609	        0.0000000000	        0.0148523779	     -120.3562545501	      894.9922135037	       14.8384823773	        0.8995741587	        0.0000000000	       -0.0385069592	        0.0000000000	        0.0000000000	        0.0000000000	        0.0000000000	        0.0000000000	        0.0000000000	
        0.6387324352	        0.0474233407	       -0.0469464009	       -0.0010331237	        0.0000000000	        0.0000000000	        0.0000000000	     -111.8343207478	      873.2920865751	       14.7482944504	        0.9026226468	        0.0000000000	       -0.0388875548	        0.0000000000	        0.0000000000	        0.0000000000	        0.0000000000	        0.0000000000	        0.0000000000	
        0.6499382674	        0.0000148279	       -0.0000119646	        0.0000009544	        0.0000000000	        0.0000000000	        0.0000000000	      -99.0154786001	      835.8136416082	       15.2108693822	        0.9058477083	        0.0000000000	       -0.0390247155	        0.0000000000	        0.0000000000	        0.0000000000	        0.0000000000	        0.0000000000	        0.0000000000	
        0.6611440996	        0.0000158284	       -0.0000112633	        0.0000012283	        0.0000000000	        0.0000000000	        0.0000000000	      -85.3413095222	      790.3447918553	       15.0476752519	        0.9091866486	        0.0000000000	       -0.0390648727	        0.0000000000	        0.0000000000	        0.0000000000	        0.0000000000	        0.0000000000	        0.0000000000	
        0.6723499318	        0.0002644330	       -0.0001690129	        0.0000226467	        0.0000000000	        0.0000000000	        0.0000000000	      -73.8854257010	      749.8149862976	       15.0460042704	        0.9131784732	        0.0000000000	       -0.0389837688	        0.0000000000	        0.0000000000	        0.0000000000	        0.0000000000	        0.0000000000	        0.0000000000	
        0.6835557640	        0.0041959020	       -0.0024617003	        0.0003788116	        0.0000000000	        0.0000000000	        0.0000000000	      -63.5229949273	      714.7325172468	       15.2291054459	        0.9174806595	        0.0000000000	       -0.0388346013	        0.0000000000	        0.0000000000	        0.0000000000	        0.0000000000	        0.0000000000	        0.0000000000	
        0.6947615962	       -0.0204568600	        0.0111852096	       -0.0019181394	        0.0000000000	        0.0000000000	        0.0000000000	      -53.4591311266	      682.5392376620	       15.8407697830	        0.9216891311	        0.0000000000	       -0.0387171523	        0.0000000000	        0.0000000000	        0.0000000000	        0.0000000000	        0.0000000000	        0.0000000000	
        0.7059674284	       -0.0138222381	        0.0071144464	       -0.0013447381	        0.0000000000	        0.0000000000	        0.0000000000	      -44.2181886193	      654.0897611675	       16.7630967237	        0.9259030447	        0.0000000000	       -0.0386519301	        0.0000000000	        0.0000000000	        0.0000000000	        0.0000000000	        0.0000000000	        0.0000000000	
        0.7171732605	       -0.0096051370	        0.0046958679	       -0.0009691306	        0.0000000000	        0.0000000000	        0.0000000000	      -36.7022972549	      630.4626807220	       17.6531979049	        0.9302785616	        0.0000000000	       -0.0386241192	        0.0000000000	        0.0000000000	        0.0000000000	        0.0000000000	        0.0000000000	        0.0000000000	
        0.7283790927	       -0.0086928448	        0.0040660439	       -0.0009043416	        0.0000000000	        0.0000000000	        0.0000000000	      -30.5153006851	      611.8330937655	       18.4002729237	        0.9347303897	        0.0000000000	       -0.0386186212	        0.0000000000	        0.0000000000	        0.0000000000	        0.0000000000	        0.0000000000	        0.0000000000	
        0.7395849249	       -0.0106051544	        0.0047720874	       -0.0011333372	        0.0000000000	        0.0000000000	        0.0000000000	      -25.2506169534	      598.0082893321	       18.9541627158	        0.9394488181	        0.0000000000	       -0.0386123115	        0.0000000000	        0.0000000000	        0.0000000000	        0.0000000000	        0.0000000000	        0.0000000000	
        0.7507907571	       -0.0167931233	        0.0073051969	       -0.0018306505	        0.0000000000	        0.0000000000	        0.0000000000	      -21.3758626819	      588.8256978127	       19.1573591395	        0.9445467063	        0.0000000000	       -0.0385787815	        0.0000000000	        0.0000000000	        0.0000000000	        0.0000000000	        0.0000000000	        0.0000000000	
        0.7619965893	       -0.0321737551	        0.0135897204	       -0.0035557155	        0.0000000000	        0.0000000000	        0.0000000000	      -19.0545679290	      584.0139477190	       19.2031620886	        0.9500174143	        0.0000000000	       -0.0384928973	        0.0000000000	        0.0000000000	        0.0000000000	        0.0000000000	        0.0000000000	        0.0000000000	
        0.7732024215	       -0.0686024302	        0.0282492261	       -0.0076391734	        0.0000000000	        0.0000000000	        0.0000000000	      -17.5466832219	      582.2557796797	       19.0046632887	        0.9557304028	        0.0000000000	       -0.0383529563	        0.0000000000	        0.0000000000	        0.0000000000	        0.0000000000	        0.0000000000	        0.0000000000	
        0.7844082537	       -0.1498170259	        0.0603632464	       -0.0166609672	        0.0000000000	        0.0000000000	        0.0000000000	      -16.2696663015	      582.0232899845	       18.3693530701	        0.9615325839	        0.0000000000	       -0.0381707578	        0.0000000000	        0.0000000000	        0.0000000000	        0.0000000000	        0.0000000000	        0.0000000000	
        0.7956140859	       -0.3108765246	        0.1229949676	       -0.0342413066	        0.0000000000	        0.0000000000	        0.0000000000	      -14.7122988604	      582.4741125441	       17.7265868145	        0.9674161851	        0.0000000000	       -0.0379478116	        0.0000000000	        0.0000000000	        0.0000000000	        0.0000000000	        0.0000000000	        0.0000000000	
        0.8068199181	       -0.5785539969	        0.2255492941	       -0.0627611839	        0.0000000000	        0.0000000000	        0.0000000000	      -13.1946361810	      582.5279959637	       17.1444031313	        0.9733159841	        0.0000000000	       -0.0376955884	        0.0000000000	        0.0000000000	        0.0000000000	        0.0000000000	        0.0000000000	        0.0000000000	
        0.8180257503	       -0.9344496579	        0.3600985305	       -0.0993854994	        0.0000000000	        0.0000000000	        0.0000000000	      -11.4080802284	      581.4700642563	       16.4895110856	        0.9791446344	        0.0000000000	       -0.0374321537	        0.0000000000	        0.0000000000	        0.0000000000	        0.0000000000	        0.0000000000	        0.0000000000	
        0.8292315825	       -1.2979224918	        0.4957516256	       -0.1345542447	        0.0000000000	        0.0000000000	        0.0000000000	       -9.2049634040	      578.7569649790	       15.7864398950	        0.9848998626	        0.0000000000	       -0.0371642050	        0.0000000000	        0.0000000000	        0.0000000000	        0.0000000000	        0.0000000000	        0.0000000000	
        0.8404374147	       -1.5649594018	        0.5938057143	       -0.1567579290	        0.0000000000	        0.0000000000	        0.0000000000	       -6.2864176703	      574.0873591075	       15.1405848482	        0.9905788345	        0.0000000000	       -0.0368937449	        0.0000000000	        0.0000000000	        0.0000000000	        0.0000000000	        0.0000000000	        0.0000000000	
        0.8516432469	       -1.6732148352	        0.6317300017	       -0.1595925885	        0.0000000000	        0.0000000000	        0.0000000000	       -2.4637176933	      568.0343237932	       13.9291077933	        0.9962696369	        0.0000000000	       -0.0366177217	        0.0000000000	        0.0000000000	        0.0000000000	        0.0000000000	        0.0000000000	        0.0000000000	
